<?xml version="1.0" encoding="iso-8859-1"?>
<!-- Uploaded to: SVG Repo, www.svgrepo.com, Generator: SVG Repo Mixer Tools -->
<svg fill="#000000" height="800px" width="800px" version="1.1" id="Layer_1" xmlns="http://www.w3.org/2000/svg" xmlns:xlink="http://www.w3.org/1999/xlink" 
	 viewBox="0 0 512 512" xml:space="preserve">
<g>
	<g>
		<g>
			<path d="M164.418,64.662c0-9.425-7.641-17.067-17.067-17.067c-9.516,0-21.744-0.002-26.377-0.002v-13.46h5.836
				c9.425,0,17.067-7.641,17.067-17.067S136.235,0,126.81,0H81.004c-9.425,0-17.067,7.641-17.067,17.067s7.641,17.067,17.067,17.067
				h5.836v13.46c-7.386,0-9.88,0.002-26.377,0.002c-9.425,0-17.067,7.641-17.067,17.067c0,9.044,7.041,16.426,15.938,17.01v17.281
				c29.381-6.971,59.799-7.094,89.146-0.296V81.672C157.376,81.088,164.418,73.706,164.418,64.662z"/>
			<path d="M492.413,47.596c-9.846,0-16.593,0-26.377,0V17.067C466.036,7.641,458.395,0,448.969,0
				c-9.425,0-17.067,7.641-17.067,17.067v30.529c-9.785,0-16.531,0-26.377,0c-9.425,0-17.067,7.641-17.067,17.067
				c0,9.044,7.041,16.426,15.938,17.01v75.097c0,9.425,7.641,17.067,17.067,17.067h10.439v263.588
				c0,22.3-18.143,40.443-40.443,40.443c-22.302,0-40.443-18.143-40.443-40.443V262.191c0-41.123-33.455-74.578-74.577-74.578
				s-74.577,33.455-74.577,74.578v175.233c0,22.3-18.143,40.443-40.443,40.443c-22.302,0-40.443-18.143-40.443-40.443V173.841
				h10.439c9.421,0,17.067-7.646,17.067-17.067v-22.903c10.786,3.049,21.253,7.236,31.174,12.481
				c8.34,4.403,18.66,1.217,23.063-7.111c4.415-8.34,1.229-18.66-7.111-23.063c-14.871-7.862-30.754-13.744-47.127-17.522v35.214
				c-29.398-8.351-60.272-8.02-89.144,0.353v22.551c0,9.421,7.646,17.067,17.067,17.067h10.439v263.582
				c0,41.123,33.455,74.577,74.577,74.577c41.122,0,74.577-33.454,74.577-74.577V262.191c0-22.302,18.143-40.445,40.443-40.445
				c22.3,0,40.443,18.143,40.443,40.445v175.233c0,41.123,33.455,74.577,74.577,74.577s74.577-33.454,74.577-74.577V173.835h10.439
				c9.425,0,17.067-7.641,17.067-17.067V81.672c8.897-0.584,15.938-7.966,15.938-17.01C509.48,55.237,501.838,47.596,492.413,47.596
				z"/>
			<path d="M4.596,140.368c4.471,8.22,14.764,11.37,23.142,6.849c10.012-5.45,20.628-9.796,31.596-12.993V98.953
				c-16.703,3.959-32.848,10.104-47.889,18.273C3.163,121.719,0.091,132.085,4.596,140.368z"/>
		</g>
	</g>
</g>
</svg>