<?xml version="1.0" encoding="iso-8859-1"?>
<!-- Uploaded to: SVG Repo, www.svgrepo.com, Generator: SVG Repo Mixer Tools -->
<svg fill="#000000" height="800px" width="800px" version="1.1" id="Layer_1" xmlns="http://www.w3.org/2000/svg" xmlns:xlink="http://www.w3.org/1999/xlink" 
	 viewBox="0 0 512 512" xml:space="preserve">
<g>
	<g>
		<path d="M486.4,153.6H25.6C11.46,153.6,0,165.06,0,179.2v153.6c0,14.14,11.46,25.6,25.6,25.6h460.8c14.14,0,25.6-11.46,25.6-25.6
			V179.2C512,165.06,500.54,153.6,486.4,153.6z M486.4,332.8H25.6V179.2h460.8V332.8z"/>
	</g>
</g>
<g>
	<g>
		<path d="M435.2,204.8H204.8c-14.14,0-25.6,11.46-25.6,25.6V256c0,14.14,11.46,25.6,25.6,25.6h230.4c14.14,0,25.6-11.46,25.6-25.6
			v-25.6C460.8,216.26,449.34,204.8,435.2,204.8z M435.2,256H204.8v-25.6h230.4V256z"/>
	</g>
</g>
<g>
	<g>
		<path d="M102.4,204.8c-28.228,0-51.2,22.963-51.2,51.2c0,28.228,22.972,51.2,51.2,51.2s51.2-22.972,51.2-51.2
			C153.6,227.763,130.628,204.8,102.4,204.8z M102.4,281.6c-14.14,0-25.6-11.46-25.6-25.6c0-14.14,11.46-25.6,25.6-25.6
			c14.14,0,25.6,11.46,25.6,25.6C128,270.14,116.54,281.6,102.4,281.6z"/>
	</g>
</g>
<g>
	<g>
		<path d="M448,294.4H192c-7.074,0-12.8,5.726-12.8,12.8S184.926,320,192,320h256c7.074,0,12.8-5.726,12.8-12.8
			S455.074,294.4,448,294.4z"/>
	</g>
</g>
</svg>